<?xml version="1.0" standalone="no"?>
<!DOCTYPE svg PUBLIC "-//W3C//DTD SVG 20010904//EN"
 "http://www.w3.org/TR/2001/REC-SVG-20010904/DTD/svg10.dtd">
<svg version="1.0" xmlns="http://www.w3.org/2000/svg"
 width="500.000000pt" height="500.000000pt" viewBox="0 0 500.000000 500.000000"
 preserveAspectRatio="xMidYMid meet">
<metadata>
Created by potrace 1.16, written by Peter Selinger 2001-2019
</metadata>
<g transform="translate(0.000000,500.000000) scale(0.100000,-0.100000)"
fill="#000000" stroke="none">
<path d="M2225 4804 c-342 -50 -504 -95 -740 -209 -253 -121 -444 -254 -629
-439 -192 -193 -316 -366 -436 -611 -106 -217 -159 -377 -207 -635 -26 -139
-26 -572 0 -720 26 -147 70 -312 116 -432 285 -756 928 -1291 1729 -1439 138
-26 484 -37 633 -20 302 34 541 108 820 253 l115 60 72 -47 c197 -127 380
-193 597 -215 181 -19 264 0 285 65 14 44 8 63 -41 125 -132 167 -206 335
-243 549 -9 52 -16 102 -16 111 0 9 26 57 59 106 453 688 495 1581 109 2304
-139 260 -330 494 -563 689 -236 197 -564 364 -869 442 -189 49 -283 60 -526
64 -129 2 -248 1 -265 -1z m443 -315 c222 -24 443 -89 657 -193 219 -108 407
-245 564 -413 312 -332 491 -715 542 -1163 15 -130 7 -423 -15 -540 -79 -425
-251 -760 -546 -1064 -264 -272 -590 -457 -965 -546 -356 -85 -772 -63 -1117
59 -580 206 -1044 683 -1235 1271 -199 614 -80 1297 318 1822 73 96 257 283
344 349 304 232 653 377 1008 418 106 12 334 13 445 0z"/>
<path d="M2300 4334 c-14 -2 -65 -9 -115 -15 -179 -22 -408 -97 -583 -190
-537 -284 -892 -798 -967 -1404 -53 -428 55 -879 298 -1237 85 -126 93 -135
237 -278 267 -265 551 -417 929 -497 115 -25 145 -27 351 -27 206 0 236 2 351
27 379 80 670 236 942 505 661 652 718 1709 131 2437 -124 154 -261 278 -431
389 -296 194 -658 299 -1010 295 -59 -1 -119 -3 -133 -5z m500 -137 c284 -63
520 -174 730 -345 73 -59 160 -142 148 -142 -3 0 -41 9 -84 19 -121 30 -266
45 -373 38 -469 -29 -873 -274 -1106 -668 -98 -166 -168 -386 -181 -566 -4
-51 -10 -93 -13 -93 -10 0 -77 109 -114 185 -204 413 -158 938 114 1301 112
150 266 289 329 297 19 3 125 4 235 2 170 -3 217 -7 315 -28z m-780 -25 c0 -4
-21 -28 -46 -52 -202 -198 -351 -529 -373 -830 -23 -320 53 -607 229 -870 76
-114 244 -285 349 -355 l73 -50 -63 -6 c-35 -3 -116 -2 -179 3 -531 40 -986
423 -1120 942 -45 175 -42 203 30 344 85 166 176 288 320 433 189 189 387 313
655 409 120 42 125 44 125 32z m1570 -527 c58 -15 133 -40 166 -55 57 -26 66
-34 127 -126 169 -255 261 -523 286 -832 14 -177 -10 -436 -53 -558 l-13 -39
-8 35 c-46 211 -169 431 -340 609 -157 164 -338 277 -560 353 -301 102 -720
72 -1004 -72 -33 -16 -63 -30 -66 -30 -9 0 46 102 102 190 70 108 242 280 348
350 146 95 285 152 462 191 73 15 119 18 268 15 158 -3 193 -7 285 -31z m-510
-668 c252 -66 434 -170 613 -352 175 -177 297 -417 341 -671 l16 -88 -33 -75
c-150 -348 -459 -661 -822 -836 -108 -52 -303 -121 -313 -111 -2 3 12 22 32
42 276 276 428 699 386 1074 -27 248 -95 436 -228 635 -74 111 -221 264 -321
335 -124 88 -129 82 64 77 140 -4 187 -9 265 -30z m-2247 -123 c114 -365 409
-682 770 -830 359 -146 759 -133 1112 36 33 16 61 28 62 26 6 -5 -73 -146
-120 -215 -63 -91 -186 -217 -282 -288 -146 -109 -372 -205 -550 -234 -125
-20 -331 -16 -453 10 -117 24 -256 72 -284 98 -32 29 -128 179 -178 281 -65
131 -113 263 -146 407 -27 113 -28 133 -29 355 0 210 3 247 24 345 13 61 26
114 29 119 6 11 10 1 45 -110z m2194 -341 c231 -378 257 -820 73 -1218 -103
-223 -340 -485 -452 -499 -297 -36 -621 15 -903 142 -169 76 -375 214 -479
321 l-49 50 56 -15 c615 -160 1263 130 1551 695 85 167 146 392 146 538 0 29
3 53 8 53 4 0 26 -30 49 -67z"/>
</g>
</svg>
