<?xml version="1.0" standalone="no"?>
<!DOCTYPE svg PUBLIC "-//W3C//DTD SVG 20010904//EN"
 "http://www.w3.org/TR/2001/REC-SVG-20010904/DTD/svg10.dtd">
<svg version="1.0" xmlns="http://www.w3.org/2000/svg"
 width="100.000000pt" height="65.000000pt" viewBox="0 0 100.000000 65.000000"
 preserveAspectRatio="xMidYMid meet">
<metadata>
Created by potrace 1.16, written by Peter Selinger 2001-2019
</metadata>
<g transform="translate(0.000000,65.000000) scale(0.100000,-0.100000)"
fill="#000000" stroke="none">
<path d="M197 616 c-73 -30 -121 -67 -155 -119 -24 -36 -27 -50 -27 -123 0
-75 3 -86 30 -125 17 -23 52 -57 78 -76 84 -57 123 -63 389 -63 l238 0 31 -42
c17 -24 34 -49 38 -56 5 -9 27 -12 74 -10 l68 3 -143 212 -143 212 -167 1
-168 0 0 -55 0 -55 133 0 133 0 32 -45 c18 -25 32 -48 32 -51 0 -3 -94 -4
-208 -2 -200 3 -210 4 -243 27 -55 38 -74 70 -74 126 0 64 28 105 93 137 45
22 58 23 309 26 l262 3 31 50 30 49 -308 0 c-300 0 -308 -1 -365 -24z"/>
<path d="M852 590 c-23 -37 -28 -50 -17 -50 13 0 31 23 69 88 4 7 2 12 -6 12
-7 0 -28 -23 -46 -50z"/>
<path d="M897 594 c-31 -51 -32 -54 -14 -54 8 0 20 11 27 25 7 14 16 25 20 25
4 0 12 -11 18 -25 6 -14 19 -25 27 -25 14 0 13 6 -7 41 -35 62 -41 63 -71 13z"/>
</g>
</svg>
