<?xml version="1.0" standalone="no"?>
<!DOCTYPE svg PUBLIC "-//W3C//DTD SVG 20010904//EN"
 "http://www.w3.org/TR/2001/REC-SVG-20010904/DTD/svg10.dtd">
<svg version="1.0" xmlns="http://www.w3.org/2000/svg"
 width="480.000000pt" height="160.000000pt" viewBox="0 0 480.000000 160.000000"
 preserveAspectRatio="xMidYMid meet">
<metadata>
Created by potrace 1.16, written by Peter Selinger 2001-2019
</metadata>
<g transform="translate(0.000000,160.000000) scale(0.100000,-0.100000)"
fill="#ffffff" stroke="none">
<path d="M3710 1401 c-10 -25 -8 -35 10 -72 l22 -43 15 28 c13 26 13 32 -3 68
-23 51 -29 54 -44 19z"/>
<path d="M1745 1258 c-43 -90 -97 -205 -121 -255 l-43 -93 53 0 54 0 68 141
68 141 67 -141 68 -141 54 0 55 0 -120 253 c-66 138 -121 253 -123 255 -1 1
-37 -71 -80 -160z"/>
<path d="M3565 1258 c-43 -90 -97 -205 -121 -255 l-43 -93 53 0 54 0 68 141
68 141 67 -141 68 -141 54 0 55 0 -120 253 c-66 138 -121 253 -123 255 -1 1
-37 -71 -80 -160z"/>
<path d="M650 1391 c-107 -33 -180 -128 -180 -236 0 -68 22 -117 75 -170 67
-68 96 -75 303 -75 l171 0 27 -50 c27 -50 28 -50 76 -50 l50 0 -42 78 c-24 42
-72 130 -107 195 l-64 117 -125 0 -124 0 0 -45 0 -45 100 0 100 0 25 -51 26
-50 -156 3 -156 3 -41 43 c-39 43 -40 45 -36 103 4 53 9 64 41 97 l37 37 203
3 204 3 21 45 c12 24 22 47 22 49 0 8 -423 4 -450 -4z"/>
<path d="M1130 1259 c0 -175 9 -209 75 -275 122 -122 307 -90 393 70 13 24 17
66 20 189 l4 157 -51 0 -51 0 0 -142 c0 -125 -3 -147 -20 -176 -32 -52 -76
-74 -139 -69 -48 3 -58 8 -93 45 l-38 41 0 151 0 150 -50 0 -50 0 0 -141z"/>
<path d="M2100 1155 l0 -245 50 0 50 0 0 195 0 195 133 0 c141 0 157 -5 157
-46 0 -39 -36 -54 -127 -54 -46 0 -83 -3 -83 -7 0 -3 34 -69 76 -145 l76 -138
48 0 49 0 -50 88 c-27 48 -49 93 -49 100 0 7 12 12 28 12 33 0 86 31 107 63
45 69 18 170 -54 206 -36 19 -58 21 -226 21 l-185 0 0 -245z"/>
<path d="M2630 1154 l0 -245 208 3 209 3 49 30 c27 17 62 51 79 75 25 38 30
56 33 122 4 69 1 82 -24 128 -60 110 -117 130 -371 130 l-183 0 0 -246z m420
124 c39 -27 70 -81 70 -123 0 -43 -30 -96 -69 -122 -31 -21 -45 -23 -177 -23
l-144 0 0 145 0 145 144 0 c132 0 146 -2 176 -22z"/>
<path d="M3280 1155 l0 -245 50 0 50 0 0 245 0 245 -50 0 -50 0 0 -245z"/>
<path d="M3910 1155 l0 -245 50 0 50 0 2 166 3 166 143 -166 142 -166 50 0 50
0 0 245 0 245 -50 0 -50 0 -2 -169 -3 -169 -144 169 -145 169 -48 0 -48 0 0
-245z"/>
<path d="M237 733 c-4 -3 -7 -98 -7 -210 l0 -203 50 0 50 0 0 210 0 210 -43 0
c-24 0 -47 -3 -50 -7z m73 -208 l0 -185 -25 0 -25 0 0 185 0 185 25 0 25 0 0
-185z"/>
<path d="M400 530 l0 -210 50 0 49 0 3 124 3 124 105 -124 105 -123 53 -1 52
0 -2 208 -3 207 -50 0 -50 0 -5 -123 -5 -123 -108 125 -108 126 -44 0 -45 0 0
-210z m210 33 l125 -147 3 147 3 147 24 0 25 0 0 -185 0 -185 -29 0 c-26 0
-46 19 -153 144 l-123 144 -3 -144 -3 -144 -29 0 -30 0 0 185 0 185 33 0 c29
-1 44 -15 157 -147z"/>
<path d="M834 726 c-3 -8 -4 -31 -2 -52 l3 -39 78 -3 77 -3 0 -154 0 -155 55
0 55 0 0 155 0 155 75 0 75 0 0 55 0 55 -205 0 c-167 0 -207 -3 -211 -14z
m396 -41 c0 -25 -1 -25 -80 -25 l-80 0 0 -160 0 -160 -25 0 -24 0 -3 158 -3
157 -77 3 c-75 3 -78 4 -78 27 l0 25 185 0 185 0 0 -25z"/>
<path d="M1277 734 c-4 -4 -7 -99 -7 -211 l0 -203 210 0 210 0 0 50 0 50 -160
0 -160 0 0 105 0 105 161 0 160 0 -3 53 -3 52 -201 3 c-110 1 -203 -1 -207 -4z
m383 -49 l0 -25 -155 0 -155 0 0 -130 0 -130 155 0 155 0 0 -30 0 -30 -180 0
-180 0 0 185 0 185 180 0 180 0 0 -25z"/>
<path d="M1740 530 l0 -210 210 0 210 0 0 50 0 50 -160 0 -160 0 0 160 0 160
-50 0 -50 0 0 -210z m80 25 l0 -155 155 0 155 0 0 -30 0 -30 -185 0 -185 0 0
185 0 185 30 0 30 0 0 -155z"/>
<path d="M2180 531 l0 -211 50 0 50 0 -2 208 -3 207 -47 3 -48 3 0 -210z m70
-6 l0 -185 -25 0 -25 0 0 185 0 185 25 0 25 0 0 -185z"/>
<path d="M2463 730 c-85 -20 -149 -91 -159 -176 -8 -66 8 -115 55 -167 54 -60
80 -67 243 -67 l143 0 23 -40 c22 -38 25 -40 72 -40 54 0 56 3 35 40 -8 14
-14 28 -15 33 0 4 92 7 205 7 l205 0 0 50 0 50 -155 0 -155 0 0 105 0 105 155
0 155 0 0 55 0 55 -207 -2 -208 -3 -5 -200 -5 -200 -65 120 -65 120 -107 3
-108 3 0 -55 0 -55 81 -3 c72 -3 83 -6 97 -25 l14 -23 -101 0 c-116 0 -151 12
-177 61 -22 43 -11 91 27 123 30 26 34 26 190 26 l159 0 25 50 c14 27 25 52
25 55 0 8 -341 4 -377 -5z m337 -28 c0 -5 -6 -15 -12 -24 -11 -14 -39 -17
-168 -20 -141 -3 -158 -5 -186 -25 -67 -48 -72 -144 -10 -200 l36 -33 135 0
134 0 -27 48 -28 47 -77 3 c-75 3 -77 4 -77 28 l0 25 91 -3 92 -3 73 -135 c41
-74 74 -138 74 -142 0 -5 -10 -8 -22 -8 -16 0 -29 11 -43 38 l-20 37 -155 5
c-117 4 -162 10 -185 22 -34 18 -67 52 -85 86 -17 34 -15 123 3 157 19 37 64
81 97 94 30 12 360 15 360 3z m440 -17 l0 -25 -155 0 -155 0 0 -130 0 -130
155 0 155 0 0 -30 0 -30 -180 0 -180 0 0 185 0 185 180 0 180 0 0 -25z"/>
<path d="M3320 531 l0 -211 50 0 49 0 3 125 3 125 105 -124 105 -125 53 0 52
-1 -2 208 -3 207 -50 0 -50 0 -5 -122 -5 -122 -105 122 c-105 121 -106 122
-153 125 l-47 3 0 -210z m211 33 l124 -146 3 146 3 146 24 0 25 0 0 -185 0
-185 -28 0 c-24 0 -47 22 -153 146 l-124 146 -3 -146 -3 -146 -29 0 -30 0 0
185 0 185 33 0 c31 0 44 -12 158 -146z"/>
<path d="M3760 685 l0 -55 75 0 75 0 0 -155 0 -155 55 0 55 0 0 155 0 155 75
0 75 0 0 55 0 55 -205 0 -205 0 0 -55z m390 0 c0 -23 -3 -24 -77 -27 l-78 -3
-3 -157 -3 -158 -24 0 -24 0 -3 158 -3 157 -77 3 c-75 3 -78 4 -78 27 l0 25
185 0 185 0 0 -25z"/>
<path d="M4197 733 c-4 -3 -7 -98 -7 -210 l0 -203 210 0 210 0 0 50 0 50 -155
0 -155 0 0 105 0 105 155 0 155 0 0 55 0 55 -203 0 c-112 0 -207 -3 -210 -7z
m393 -48 l0 -24 -157 -3 -158 -3 -3 -127 -3 -128 161 0 160 0 0 -30 0 -30
-185 0 -185 0 0 185 0 185 185 0 185 0 0 -25z"/>
<path d="M1450 525 l0 -56 118 3 117 3 3 53 3 52 -120 0 -121 0 0 -55z m210 0
c0 -25 0 -25 -95 -25 -95 0 -95 0 -95 25 0 25 0 25 95 25 95 0 95 0 95 -25z"/>
<path d="M3030 525 l0 -55 120 0 120 0 0 55 0 55 -120 0 -120 0 0 -55z m210 0
c0 -25 0 -25 -95 -25 -95 0 -95 0 -95 25 0 25 0 25 95 25 95 0 95 0 95 -25z"/>
<path d="M4370 525 l0 -55 120 0 120 0 0 55 0 55 -120 0 -120 0 0 -55z m220 0
c0 -25 0 -25 -95 -25 -95 0 -95 0 -95 25 0 25 0 25 95 25 95 0 95 0 95 -25z"/>
</g>
</svg>
