<?xml version="1.0" standalone="no"?>
<!DOCTYPE svg PUBLIC "-//W3C//DTD SVG 20010904//EN"
 "http://www.w3.org/TR/2001/REC-SVG-20010904/DTD/svg10.dtd">
<svg version="1.0" xmlns="http://www.w3.org/2000/svg"
 width="300.000000pt" height="251.000000pt" viewBox="0 0 300.000000 251.000000"
 preserveAspectRatio="xMidYMid meet">
<metadata>
Created by potrace 1.16, written by Peter Selinger 2001-2019
</metadata>
<g transform="translate(0.000000,251.000000) scale(0.100000,-0.100000)"
fill="#000000" stroke="none">
<path d="M1325 2500 c-343 -39 -681 -183 -940 -400 -82 -69 -213 -198 -240
-238 -12 -16 -26 -22 -54 -22 -95 0 -124 -121 -39 -163 33 -16 40 -16 71 -4
44 19 64 63 48 109 -13 35 -10 39 124 173 217 218 501 378 803 454 204 51 467
65 669 35 122 -18 163 -33 93 -34 -158 -2 -405 -111 -559 -247 -33 -29 -66
-53 -73 -53 -27 0 -264 -61 -331 -86 -62 -22 -70 -23 -90 -9 -57 40 -137 -1
-137 -69 0 -105 142 -123 168 -22 7 27 17 34 83 58 351 126 788 142 1174 43
159 -41 205 -60 205 -83 0 -9 -32 -52 -70 -94 -234 -256 -574 -446 -927 -517
-135 -28 -166 -27 -197 4 -36 36 -97 35 -125 -1 -47 -60 -10 -144 64 -144 35
0 85 35 85 58 0 5 28 13 63 16 245 27 539 139 764 292 123 83 137 95 251 206
l92 91 0 -82 c0 -95 -7 -114 -52 -131 -76 -30 -236 -114 -307 -162 -229 -154
-438 -374 -561 -591 -24 -42 -50 -77 -57 -77 -24 0 -168 43 -241 71 -154 61
-304 146 -445 252 -65 49 -67 52 -67 94 0 57 -33 93 -84 93 -79 0 -119 -88
-66 -145 20 -21 32 -25 70 -24 42 2 53 -3 111 -48 194 -152 422 -268 622 -318
93 -24 89 -21 75 -50 -14 -31 -21 -31 -178 -4 -143 24 -170 33 -170 54 0 9
-11 27 -25 40 -30 31 -82 33 -119 4 -35 -28 -37 -95 -3 -127 29 -28 85 -29
119 -3 23 19 25 19 103 0 44 -10 116 -22 160 -27 44 -4 79 -12 78 -17 -1 -6
-13 -40 -25 -76 -20 -56 -27 -67 -53 -75 -19 -6 -37 -22 -49 -44 -18 -34 -18
-38 -2 -72 30 -62 90 -75 137 -29 34 35 38 77 9 113 -21 28 -17 56 20 144 l19
44 96 0 c123 0 267 16 374 41 46 10 85 18 87 16 7 -7 -94 -112 -175 -180 -256
-220 -561 -360 -885 -407 -75 -11 -80 -11 -95 8 -39 49 -91 54 -132 13 -60
-60 -21 -151 64 -151 24 0 70 35 78 58 2 7 48 19 104 27 391 59 739 243 1028
544 l98 102 92 14 c50 8 125 23 165 34 39 10 72 16 72 13 0 -4 -19 -32 -43
-63 -166 -220 -398 -407 -648 -523 l-72 -34 -33 20 c-42 24 -85 17 -114 -19
-40 -51 -15 -124 47 -139 44 -12 76 7 101 59 12 26 28 47 35 47 6 0 47 18 90
40 l78 40 58 -15 c141 -36 269 -28 364 23 63 34 93 69 152 178 102 190 229
346 322 396 26 15 79 34 117 42 104 24 151 49 185 97 35 47 39 89 16 146 -20
47 -19 70 5 100 24 31 25 51 5 80 -10 14 -13 32 -9 48 5 19 0 35 -15 55 -30
41 -27 57 19 99 29 26 42 48 47 74 7 46 -1 56 -125 150 -51 38 -101 81 -112
94 -10 13 -33 66 -50 118 -65 194 -170 314 -360 410 -123 63 -382 145 -534
171 -111 18 -382 26 -491 14z m803 -156 c109 -24 116 -31 136 -126 9 -46 21
-109 25 -140 9 -65 6 -68 -56 -43 -177 69 -490 112 -740 101 -84 -3 -153 -4
-153 -2 0 3 28 25 63 50 71 51 218 126 292 150 115 36 298 41 433 10z m268
-116 c41 -24 74 -47 74 -51 0 -13 -110 -177 -119 -177 -5 0 -12 33 -15 73 -4
39 -13 100 -21 135 -8 41 -9 62 -2 62 5 0 43 -19 83 -42z m164 -132 c24 -36
31 -59 38 -130 4 -47 5 -86 0 -86 -6 0 -187 88 -196 95 -6 5 113 173 120 169
4 -3 21 -25 38 -48z m-62 -222 l113 -57 -3 -35 -3 -35 -105 -27 c-58 -15 -116
-30 -130 -34 l-25 -7 3 113 c4 126 6 138 24 138 7 0 64 -25 126 -56z m182 -31
c0 -7 -7 -10 -15 -7 -10 4 -15 19 -14 43 l1 36 13 -30 c8 -16 14 -35 15 -42z
m-2 -72 c11 -7 11 -9 -1 -14 -16 -6 -27 0 -27 15 0 10 11 10 28 -1z m172 -124
c52 -40 96 -81 98 -91 2 -11 -12 -35 -35 -60 -22 -22 -57 -63 -79 -91 -77 -98
-327 -335 -311 -295 57 141 118 404 129 560 3 36 8 39 93 48 6 1 53 -31 105
-71z m-250 -1 c0 -108 -55 -343 -118 -502 -43 -111 -63 -131 -208 -214 -70
-40 -246 -121 -252 -116 -1 2 19 34 44 72 111 167 218 437 252 636 19 115 8
105 157 143 126 33 125 34 125 -19z m-320 -66 c0 -36 -48 -222 -80 -315 -44
-124 -115 -264 -194 -383 -55 -82 -72 -101 -97 -106 -83 -16 -498 0 -519 20
-13 14 116 207 218 327 145 169 334 315 550 423 59 30 110 54 115 54 4 0 7 -9
7 -20z m614 -233 c8 -12 7 -22 -2 -37 -17 -28 -15 -39 11 -61 l22 -19 -60 -57
c-33 -32 -90 -79 -127 -106 -76 -54 -293 -170 -308 -165 -15 5 47 106 78 125
92 59 266 221 332 311 25 34 37 36 54 9z m4 -264 c21 -56 22 -68 2 -101 -27
-44 -70 -68 -155 -87 -38 -9 -94 -27 -123 -42 -106 -50 -265 -240 -358 -425
-43 -86 -92 -140 -152 -170 -41 -20 -62 -23 -162 -23 -63 1 -124 6 -134 12
-17 9 -12 15 45 53 183 124 384 324 485 484 23 36 38 47 100 70 99 38 265 133
350 200 38 30 74 55 80 55 6 1 16 -11 22 -26z m-531 -175 c-24 -41 -29 -44
-118 -70 -52 -15 -98 -28 -104 -28 -5 0 37 25 94 56 58 31 114 62 125 70 30
21 30 18 3 -28z m-868 -178 c46 -5 86 -12 89 -15 3 -3 -52 -5 -122 -5 -125 0
-127 0 -116 21 9 15 18 19 38 15 15 -3 65 -10 111 -16z"/>
</g>
</svg>
